<svg width="885" height="542" viewBox="0 0 885 542" fill="none" xmlns="http://www.w3.org/2000/svg">
<path opacity="0.75" d="M-2 15C85.3631 131.134 227.907 203.777 373.221 206.196C416.946 206.925 461.255 201.503 501.803 185.091C542.35 168.68 578.934 140.666 601.03 102.917C611.028 85.8641 617.733 63.7974 607.589 46.832C598.844 32.2277 579.517 26.4268 562.843 29.8374C546.169 33.248 531.973 44.2376 520.517 56.8013C481.835 99.244 469.679 164.045 490.317 217.623C510.489 269.947 557.305 307.493 606.539 334.369C655.774 361.246 709.264 379.989 757.042 409.344C804.819 438.698 848.136 481.84 860 536.642" stroke="url(#paint0_linear_42_59)" stroke-width="49.9062"/>
<defs>
<linearGradient id="paint0_linear_42_59" x1="124.818" y1="-54.2776" x2="380.172" y2="663.976" gradientUnits="userSpaceOnUse">
<stop stop-color="#D7EFB7"/>
<stop offset="0.833333" stop-color="#81C722" stop-opacity="0"/>
</linearGradient>
</defs>
</svg>
