<svg width="82" height="81" viewBox="0 0 82 81" fill="none" xmlns="http://www.w3.org/2000/svg">
<path d="M9.9001 75.5L9.04114 76.1872C9.24989 76.4481 9.56594 76.6 9.9001 76.6V75.5ZM1.1001 64.5L0.241142 63.8128C-0.0802505 64.2146 -0.0802505 64.7854 0.241142 65.1872L1.1001 64.5ZM9.9001 53.5V52.4C9.56594 52.4 9.24989 52.5519 9.04114 52.8128L9.9001 53.5ZM30.8001 55.7V73.3H33.0001V55.7H30.8001ZM29.7001 74.4H9.9001V76.6H29.7001V74.4ZM10.7591 74.8128L1.95905 63.8128L0.241142 65.1872L9.04114 76.1872L10.7591 74.8128ZM1.95905 65.1872L10.7591 54.1872L9.04114 52.8128L0.241142 63.8128L1.95905 65.1872ZM9.9001 54.6H29.7001V52.4H9.9001V54.6ZM30.8001 73.3C30.8001 73.9075 30.3076 74.4 29.7001 74.4V76.6C31.5226 76.6 33.0001 75.1225 33.0001 73.3H30.8001ZM33.0001 55.7C33.0001 53.8775 31.5226 52.4 29.7001 52.4V54.6C30.3076 54.6 30.8001 55.0925 30.8001 55.7H33.0001ZM13.5223 60.8778L22.3223 69.6778L23.8779 68.1222L15.0779 59.3222L13.5223 60.8778ZM22.3223 59.3222L13.5223 68.1222L15.0779 69.6778L23.8779 60.8778L22.3223 59.3222Z" fill="white"/>
<path d="M7.56 39.84V12H1.8V40H20.56V31.64C18.6 37.04 12.64 39.68 7.56 39.84ZM31.1403 40.36C35.9403 40.36 40.6603 36.44 40.6603 30.6C40.6603 24.72 35.9403 20.8 31.1403 20.8C26.3803 20.8 21.6203 24.72 21.6203 30.6C21.6203 36.44 26.3803 40.36 31.1403 40.36ZM31.1403 40.2C28.5003 40.2 27.8203 37.24 27.8203 30.6C27.8203 23.92 28.5003 20.96 31.1403 20.96C33.7803 20.96 34.4603 23.92 34.4603 30.6C34.4603 37.24 33.7803 40.2 31.1403 40.2ZM58.1206 13.48H58.0006C57.5206 16.64 54.7206 20.68 51.9606 20.68L51.8006 20.8C56.8406 20.8 61.6006 17.76 58.1206 13.48ZM52.4806 35.8C46.4806 34.96 44.7206 34.84 44.7206 33.6C44.7206 32.6 45.5606 32.04 46.6806 31.72C48.3606 32.6 50.4006 32.92 51.8006 32.92C54.6406 32.92 59.9606 31.68 59.9606 27.12C59.9606 22.56 54.6406 20.8 51.8006 20.8C48.9606 20.8 43.6406 22.56 43.6406 27.12C43.6406 29.36 44.9206 30.8 46.5606 31.68C44.0006 32 42.1206 33 42.1206 35.4C42.1206 39.08 46.4806 39.4 51.6406 40.04C54.5206 40.36 55.7606 41.64 55.7606 44.04C55.7606 46.16 54.4406 47.88 52.0406 47.88C49.9606 47.88 48.6806 45.64 48.6806 44.08C48.6806 42.32 49.2806 40.88 51.1606 40.68L51.0806 40.6C47.4406 40.72 43.5606 41.24 43.5606 44.08C43.5606 47.48 49.6406 48 52.0406 48C54.6806 48 60.5606 46.56 60.5606 41.96C60.5606 39.08 58.3206 36.6 52.4806 35.8ZM51.8006 20.92C54.2806 20.92 54.4406 24.72 54.4406 27.12C54.4406 29.52 54.2806 32.8 51.8006 32.8C49.3206 32.8 49.1606 29.52 49.1606 27.12C49.1606 24.72 49.3206 20.92 51.8006 20.92ZM71.0044 40.36C75.8044 40.36 80.5244 36.44 80.5244 30.6C80.5244 24.72 75.8044 20.8 71.0044 20.8C66.2444 20.8 61.4844 24.72 61.4844 30.6C61.4844 36.44 66.2444 40.36 71.0044 40.36ZM71.0044 40.2C68.3644 40.2 67.6844 37.24 67.6844 30.6C67.6844 23.92 68.3644 20.96 71.0044 20.96C73.6444 20.96 74.3244 23.92 74.3244 30.6C74.3244 37.24 73.6444 40.2 71.0044 40.2Z" fill="white"/>
</svg>
